<?xml version="1.0" encoding="UTF-8"?>
<svg xmlns="http://www.w3.org/2000/svg" xmlns:xlink="http://www.w3.org/1999/xlink" width="16px" height="18px" viewBox="0 0 16 18" version="1.1">
<g id="surface1">
<path style=" stroke:none;fill-rule:nonzero;fill:rgb(99.607843%,24.313725%,34.117647%);fill-opacity:1;" d="M 0 16.3125 C 0 17.242188 0.769531 18 1.714844 18 L 14.285156 18 C 15.230469 18 16 17.242188 16 16.3125 L 16 6.75 L 0 6.75 Z M 11.429688 9.421875 C 11.429688 9.191406 11.621094 9 11.855469 9 L 13.285156 9 C 13.519531 9 13.714844 9.191406 13.714844 9.421875 L 13.714844 10.828125 C 13.714844 11.058594 13.519531 11.25 13.285156 11.25 L 11.855469 11.25 C 11.621094 11.25 11.429688 11.058594 11.429688 10.828125 Z M 11.429688 13.921875 C 11.429688 13.691406 11.621094 13.5 11.855469 13.5 L 13.285156 13.5 C 13.519531 13.5 13.714844 13.691406 13.714844 13.921875 L 13.714844 15.328125 C 13.714844 15.558594 13.519531 15.75 13.285156 15.75 L 11.855469 15.75 C 11.621094 15.75 11.429688 15.558594 11.429688 15.328125 Z M 6.855469 9.421875 C 6.855469 9.191406 7.050781 9 7.285156 9 L 8.714844 9 C 8.949219 9 9.144531 9.191406 9.144531 9.421875 L 9.144531 10.828125 C 9.144531 11.058594 8.949219 11.25 8.714844 11.25 L 7.285156 11.25 C 7.050781 11.25 6.855469 11.058594 6.855469 10.828125 Z M 6.855469 13.921875 C 6.855469 13.691406 7.050781 13.5 7.285156 13.5 L 8.714844 13.5 C 8.949219 13.5 9.144531 13.691406 9.144531 13.921875 L 9.144531 15.328125 C 9.144531 15.558594 8.949219 15.75 8.714844 15.75 L 7.285156 15.75 C 7.050781 15.75 6.855469 15.558594 6.855469 15.328125 Z M 2.285156 9.421875 C 2.285156 9.191406 2.480469 9 2.714844 9 L 4.144531 9 C 4.378906 9 4.570312 9.191406 4.570312 9.421875 L 4.570312 10.828125 C 4.570312 11.058594 4.378906 11.25 4.144531 11.25 L 2.714844 11.25 C 2.480469 11.25 2.285156 11.058594 2.285156 10.828125 Z M 2.285156 13.921875 C 2.285156 13.691406 2.480469 13.5 2.714844 13.5 L 4.144531 13.5 C 4.378906 13.5 4.570312 13.691406 4.570312 13.921875 L 4.570312 15.328125 C 4.570312 15.558594 4.378906 15.75 4.144531 15.75 L 2.714844 15.75 C 2.480469 15.75 2.285156 15.558594 2.285156 15.328125 Z M 14.285156 2.25 L 12.570312 2.25 L 12.570312 0.5625 C 12.570312 0.253906 12.3125 0 12 0 L 10.855469 0 C 10.542969 0 10.285156 0.253906 10.285156 0.5625 L 10.285156 2.25 L 5.714844 2.25 L 5.714844 0.5625 C 5.714844 0.253906 5.457031 0 5.144531 0 L 4 0 C 3.6875 0 3.429688 0.253906 3.429688 0.5625 L 3.429688 2.25 L 1.714844 2.25 C 0.769531 2.25 0 3.007812 0 3.9375 L 0 5.625 L 16 5.625 L 16 3.9375 C 16 3.007812 15.230469 2.25 14.285156 2.25 Z M 14.285156 2.25 "/>
</g>
</svg>
