<?xml version="1.0" encoding="UTF-8"?>
<svg xmlns="http://www.w3.org/2000/svg" xmlns:xlink="http://www.w3.org/1999/xlink" width="16px" height="16px" viewBox="0 0 16 16" version="1.1">
<g id="surface1">
<path style=" stroke:none;fill-rule:nonzero;fill:#fe3e57;fill-opacity:1;" d="M 8 1 C 3.582031 1 0 3.910156 0 7.5 C 0 8.988281 0.621094 10.351562 1.652344 11.445312 C 1.1875 12.679688 0.21875 13.722656 0.203125 13.734375 C -0.00390625 13.953125 -0.0585938 14.273438 0.0585938 14.546875 C 0.179688 14.820312 0.449219 15 0.75 15 C 2.671875 15 4.1875 14.195312 5.097656 13.554688 C 6 13.835938 6.976562 14 8 14 C 12.417969 14 16 11.089844 16 7.5 C 16 3.910156 12.417969 1 8 1 Z M 8 12.5 C 7.164062 12.5 6.339844 12.371094 5.550781 12.121094 L 4.839844 11.898438 L 4.230469 12.328125 C 3.785156 12.644531 3.171875 12.996094 2.433594 13.234375 C 2.664062 12.855469 2.882812 12.429688 3.054688 11.976562 L 3.386719 11.101562 L 2.742188 10.417969 C 2.179688 9.816406 1.5 8.820312 1.5 7.5 C 1.5 4.742188 4.414062 2.5 8 2.5 C 11.585938 2.5 14.5 4.742188 14.5 7.5 C 14.5 10.257812 11.585938 12.5 8 12.5 Z M 8 12.5 "/>
</g>
</svg>
