<?xml version="1.0" encoding="UTF-8"?>
<svg xmlns="http://www.w3.org/2000/svg" xmlns:xlink="http://www.w3.org/1999/xlink" width="18px" height="18px" viewBox="0 0 18 18" version="1.1">
<g id="surface1">
<path style=" stroke:none;fill-rule:nonzero;fill:#FE3E57;fill-opacity:1;" d="M 6.1875 7.59375 L 11.8125 7.59375 C 12.125 7.59375 12.375 7.34375 12.375 7.03125 L 12.375 6.46875 C 12.375 6.15625 12.125 5.90625 11.8125 5.90625 L 6.1875 5.90625 C 5.875 5.90625 5.625 6.15625 5.625 6.46875 L 5.625 7.03125 C 5.625 7.34375 5.875 7.59375 6.1875 7.59375 Z M 5.625 10.40625 C 5.625 10.71875 5.875 10.96875 6.1875 10.96875 L 11.8125 10.96875 C 12.125 10.96875 12.375 10.71875 12.375 10.40625 L 12.375 9.84375 C 12.375 9.53125 12.125 9.28125 11.8125 9.28125 L 6.1875 9.28125 C 5.875 9.28125 5.625 9.53125 5.625 9.84375 Z M 9 14.664062 C 8.421875 14.664062 7.84375 14.488281 7.351562 14.128906 L 0 8.820312 L 0 16.3125 C 0 17.246094 0.753906 18 1.6875 18 L 16.3125 18 C 17.246094 18 18 17.246094 18 16.3125 L 18 8.820312 L 10.648438 14.128906 C 10.15625 14.488281 9.578125 14.664062 9 14.664062 Z M 17.351562 5.730469 C 17.042969 5.484375 16.746094 5.253906 16.3125 4.925781 L 16.3125 3.375 C 16.3125 2.441406 15.558594 1.6875 14.625 1.6875 L 11.898438 1.6875 C 11.792969 1.609375 11.691406 1.539062 11.582031 1.457031 C 10.988281 1.027344 9.816406 -0.0117188 9 0 C 8.183594 -0.0117188 7.011719 1.027344 6.417969 1.457031 C 6.308594 1.539062 6.207031 1.609375 6.101562 1.6875 L 3.375 1.6875 C 2.441406 1.6875 1.6875 2.441406 1.6875 3.375 L 1.6875 4.925781 C 1.253906 5.253906 0.957031 5.484375 0.648438 5.730469 C 0.238281 6.046875 0 6.539062 0 7.054688 L 0 7.429688 L 3.375 9.867188 L 3.375 3.375 L 14.625 3.375 L 14.625 9.867188 L 18 7.429688 L 18 7.054688 C 18 6.539062 17.761719 6.046875 17.351562 5.730469 Z M 17.351562 5.730469 "/>
</g>
</svg>
