<?xml version="1.0" encoding="UTF-8"?>
<svg xmlns="http://www.w3.org/2000/svg" xmlns:xlink="http://www.w3.org/1999/xlink" width="14px" height="19px" viewBox="0 0 14 18" version="1.1">
<g id="surface1">
<path style=" stroke:none;fill-rule:nonzero;fill:#FE3E57;fill-opacity:1;" d="M 6.28125 17.636719 C 0.984375 10.230469 0 9.472656 0 6.75 C 0 3.023438 3.132812 0 7 0 C 10.867188 0 14 3.023438 14 6.75 C 14 9.472656 13.015625 10.230469 7.71875 17.636719 C 7.371094 18.121094 6.628906 18.121094 6.28125 17.636719 Z M 7 9.5625 C 8.609375 9.5625 9.917969 8.304688 9.917969 6.75 C 9.917969 5.195312 8.609375 3.9375 7 3.9375 C 5.390625 3.9375 4.082031 5.195312 4.082031 6.75 C 4.082031 8.304688 5.390625 9.5625 7 9.5625 Z M 7 9.5625 "/>
</g>
</svg>
